<?xml version="1.0" standalone="no"?>
<!DOCTYPE svg PUBLIC "-//W3C//DTD SVG 20010904//EN"
 "http://www.w3.org/TR/2001/REC-SVG-20010904/DTD/svg10.dtd">
<svg version="1.0" xmlns="http://www.w3.org/2000/svg"
 viewBox="0 0 2600.000000 2600.000000"
 preserveAspectRatio="xMidYMid meet">
<metadata>
Created by potrace 1.15, written by Peter Selinger 2001-2017
</metadata>
<g transform="translate(0.000000,2600.000000) scale(0.100000,-0.100000)"
fill="#000000" stroke="none">
<path d="M17395 20274 c-748 -33 -1440 -289 -2000 -743 -44 -35 -85 -68 -91
-72 -6 -5 -54 9 -110 30 -662 257 -1392 424 -2164 497 -235 22 -870 30 -1122
15 -572 -35 -1101 -121 -1643 -267 -185 -50 -655 -203 -775 -254 -72 -30 -75
-30 -96 -13 -393 316 -721 499 -1142 637 -354 116 -672 166 -1052 166 -301 0
-541 -27 -804 -91 -637 -156 -1179 -465 -1636 -935 -521 -536 -834 -1183 -935
-1939 -23 -168 -31 -519 -16 -696 57 -674 304 -1309 712 -1827 71 -91 260
-302 270 -302 4 0 -10 -59 -32 -131 -148 -504 -242 -1001 -296 -1574 -15 -153
-18 -284 -18 -680 0 -513 7 -639 56 -1015 262 -2038 1293 -3868 2909 -5165
1531 -1229 3478 -1841 5455 -1714 2213 141 4256 1199 5652 2926 946 1170 1530
2561 1702 4048 40 342 46 471 46 935 -1 475 -10 644 -56 999 -53 416 -153 891
-263 1250 l-34 113 73 77 c430 448 730 1029 859 1661 74 367 85 784 30 1160
-58 400 -196 810 -387 1155 -74 133 -223 355 -323 480 -107 134 -385 414 -514
516 -535 427 -1157 680 -1815 738 -132 12 -343 19 -440 15z m-9865 -860 c282
-36 531 -113 795 -244 99 -49 190 -97 202 -107 22 -18 21 -19 -134 -108 -1223
-705 -2248 -1743 -2953 -2990 -64 -113 -267 -515 -297 -585 -10 -24 -13 -20
-81 83 -206 312 -327 621 -393 1002 -27 153 -37 511 -20 677 62 591 316 1123
736 1543 398 399 881 642 1440 726 206 30 481 32 705 3z m10355 -3 c497 -75
926 -271 1309 -601 384 -331 675 -803 801 -1301 57 -222 69 -334 70 -624 0
-307 -10 -397 -75 -651 -72 -283 -200 -565 -363 -802 l-50 -72 -102 207 c-701
1431 -1834 2638 -3202 3413 -62 35 -110 67 -107 71 2 4 44 30 93 58 316 181
680 290 1091 325 101 9 411 -5 535 -23z m-5945 -576 c0 -179 -4 -325 -8 -325
-5 0 -82 -7 -173 -15 -1071 -101 -2087 -461 -2969 -1052 -172 -115 -382 -271
-535 -399 -120 -100 -340 -300 -405 -368 l-34 -36 294 -295 294 -294 76 72
c843 800 1835 1299 2955 1486 103 17 229 33 453 57 l52 5 0 -375 0 -376 -22
-4 c-13 -3 -72 -10 -133 -16 -607 -65 -1276 -283 -1815 -593 -351 -201 -630
-408 -935 -694 l-100 -93 297 -297 297 -296 102 97 c367 349 829 635 1331 824
274 104 653 195 906 218 l72 7 0 -537 0 -536 415 0 415 0 0 536 0 537 73 -7
c262 -24 645 -119 947 -234 481 -184 959 -488 1318 -836 l72 -71 297 297 297
297 -95 89 c-629 592 -1344 983 -2169 1186 -195 48 -415 87 -590 106 -58 6
-115 13 -127 16 l-23 4 0 376 0 375 53 -5 c468 -50 718 -96 1074 -197 844
-239 1598 -667 2274 -1292 l136 -125 294 294 294 294 -50 51 c-79 80 -289 269
-425 380 -722 593 -1560 1018 -2462 1249 -318 82 -674 143 -1007 175 -91 8
-168 15 -173 15 -4 0 -8 147 -8 326 l0 327 108 -7 c710 -44 1521 -237 2212
-526 1276 -533 2382 -1444 3154 -2599 694 -1036 1088 -2197 1176 -3466 14
-193 14 -736 0 -930 -66 -967 -308 -1861 -730 -2705 -519 -1038 -1313 -1957
-2275 -2632 -1469 -1031 -3284 -1460 -5085 -1202 -1238 177 -2422 690 -3400
1475 -1010 810 -1771 1863 -2223 3079 -436 1172 -547 2513 -311 3769 238 1269
813 2431 1686 3406 164 183 476 488 659 645 944 808 2057 1345 3269 1578 274
53 705 108 868 111 l62 1 0 -325z"/>
<path d="M8881 13419 c-230 -41 -444 -195 -554 -397 -44 -83 -84 -217 -93
-314 -12 -138 31 -323 103 -448 49 -84 199 -234 283 -283 139 -81 327 -119
481 -98 325 43 578 264 665 581 28 99 26 291 -4 394 -77 266 -280 471 -542
546 -86 25 -255 34 -339 19z"/>
<path d="M15590 13423 c-311 -54 -540 -250 -636 -543 -25 -76 -28 -100 -28
-225 -1 -120 2 -151 22 -215 71 -226 207 -388 409 -486 179 -88 365 -104 558
-49 361 104 601 464 555 832 -24 187 -93 328 -229 464 -121 121 -258 192 -422
218 -63 11 -180 12 -229 4z"/>
<path d="M5890 12048 c0 -107 21 -447 35 -593 81 -794 294 -1529 651 -2245
376 -753 885 -1414 1513 -1964 120 -105 125 -108 140 -90 9 11 130 155 268
321 l253 302 -128 113 c-921 819 -1546 1912 -1786 3118 -55 279 -90 586 -102
908 l-7 182 -419 0 -418 0 0 -52z"/>
<path d="M17976 11933 c-45 -1099 -347 -2049 -933 -2940 -268 -408 -648 -837
-1046 -1181 l-39 -33 249 -297 c136 -163 257 -307 269 -321 l20 -24 90 79
c371 326 660 637 939 1009 157 210 245 340 378 563 249 417 429 812 587 1292
203 613 298 1161 325 1868 l5 152 -418 0 -419 0 -7 -167z"/>
<path d="M12221 11400 c-318 -67 -562 -311 -622 -624 -14 -75 -12 -223 5 -304
36 -175 141 -341 288 -458 l37 -29 -20 -99 c-166 -818 -862 -1422 -1696 -1473
l-103 -6 0 -420 0 -420 123 7 c578 33 1103 233 1550 591 192 154 381 356 519
555 53 77 65 89 73 75 6 -10 49 -70 96 -134 478 -649 1209 -1041 2027 -1087
l122 -7 0 422 0 421 -50 0 c-79 0 -235 19 -340 42 -258 55 -527 182 -745 352
-95 74 -251 233 -326 333 -173 229 -282 470 -339 748 l-21 100 43 34 c206 167
308 394 295 655 -10 204 -77 356 -222 502 -101 103 -189 157 -320 200 -65 22
-103 27 -205 30 -69 2 -145 -1 -169 -6z"/>
</g>
</svg>
